<svg width="17" height="32" viewBox="0 0 17 32" fill="none" xmlns="http://www.w3.org/2000/svg">
<path d="M1.04859 29.0417C1.04859 28.7777 1.04859 28.5137 1.28261 28.2497L12.5153 15.5769L1.51662 2.64016C1.28261 2.37614 1.04859 2.11213 1.04859 1.84811C1.04859 1.58409 1.04859 1.32008 1.28261 1.05606C1.51662 0.792047 1.75064 0.792047 1.98465 0.792047C2.21866 0.792047 2.45268 0.792047 2.68669 1.05606L14.8554 14.7849C15.0894 15.0489 15.0894 15.3129 15.0894 15.5769C15.0894 15.8409 15.0894 16.105 14.8554 16.369L2.92071 29.8338C2.68669 30.0978 2.45268 30.0978 2.21866 30.0978C1.98465 30.0978 1.75064 30.0978 1.51662 29.8338C1.28261 29.5698 1.04859 29.3057 1.04859 29.0417ZM1.75064 29.0417C1.75064 29.3057 1.75064 29.3057 1.98465 29.5698C2.21866 29.8338 2.21866 29.8338 2.45268 29.8338C2.68669 29.8338 2.68669 29.8338 2.92071 29.5698L14.6214 15.8409C14.6214 15.8409 14.8554 15.5769 14.8554 15.3129C14.8554 15.0489 14.8554 15.0489 14.6214 14.7849L2.68669 1.32008C2.68669 1.32008 2.45268 1.05606 2.21866 1.05606C1.98465 1.05606 1.98465 1.05606 1.75064 1.32008C1.51662 1.58409 1.75064 1.58409 1.75064 1.84811C1.75064 2.11213 1.75064 2.11213 1.98465 2.37614L13.6853 15.5769L1.98465 28.7777C1.75064 28.7777 1.75064 29.0417 1.75064 29.0417ZM0.580566 29.0417C0.580566 28.5137 0.81458 27.9857 1.04859 27.7216L12.2813 15.0489L12.7493 15.5769L12.2813 15.8409L1.04859 3.16819C0.81458 2.90417 0.580566 2.37614 0.580566 1.84811C0.580566 1.32008 0.81458 0.792047 1.04859 0.528031C1.28261 0.264016 1.75064 0 2.21866 0C2.68669 0 3.15472 0.264016 3.38873 0.528031L15.5575 14.2568C15.7915 14.5209 16.0255 15.0489 16.0255 15.5769C16.0255 16.105 15.7915 16.369 15.5575 16.897L3.38873 30.6258C3.15472 30.8898 2.68669 31.1538 2.21866 31.1538C1.75064 31.1538 1.28261 30.8898 1.04859 30.6258C0.81458 30.3618 0.580566 29.5698 0.580566 29.0417Z" fill="white"/>
</svg>
