<svg width="25" height="30" viewBox="0 0 25 30" fill="none" xmlns="http://www.w3.org/2000/svg">
<path d="M4.975 0.925781L3.62969 3.22812C3.42188 3.58359 3.3125 3.99375 3.3125 4.40937V4.5625C3.3125 5.77109 4.29141 6.75 5.5 6.75C6.70859 6.75 7.6875 5.77109 7.6875 4.5625V4.40937C7.6875 3.99375 7.57812 3.58906 7.37031 3.22812L6.025 0.925781C5.91563 0.739844 5.71328 0.625 5.5 0.625C5.28672 0.625 5.08437 0.739844 4.975 0.925781ZM11.975 0.925781L10.6297 3.22812C10.4219 3.58359 10.3125 3.99375 10.3125 4.40937V4.5625C10.3125 5.77109 11.2914 6.75 12.5 6.75C13.7086 6.75 14.6875 5.77109 14.6875 4.5625V4.40937C14.6875 3.99375 14.5781 3.58906 14.3703 3.22812L13.025 0.925781C12.9156 0.739844 12.7133 0.625 12.5 0.625C12.2867 0.625 12.0844 0.739844 11.975 0.925781ZM17.6297 3.22812C17.4219 3.58359 17.3125 3.99375 17.3125 4.40937V4.5625C17.3125 5.77109 18.2914 6.75 19.5 6.75C20.7086 6.75 21.6875 5.77109 21.6875 4.5625V4.40937C21.6875 3.99375 21.5781 3.58906 21.3703 3.22812L20.025 0.925781C19.9156 0.739844 19.7133 0.625 19.5 0.625C19.2867 0.625 19.0844 0.739844 18.975 0.925781L17.6297 3.22812ZM7.25 10.25C7.25 9.28203 6.46797 8.5 5.5 8.5C4.53203 8.5 3.75 9.28203 3.75 10.25V13.1758C1.71016 13.8922 0.25 15.8391 0.25 18.125V19.2625C1.39297 19.3336 2.525 19.6617 3.54766 20.2469L3.93594 20.4711C5.37422 21.2914 7.15703 21.2039 8.50781 20.2414C10.8977 18.5352 14.1023 18.5352 16.4922 20.2414C17.8375 21.2039 19.6258 21.2969 21.0641 20.4711L21.4523 20.2469C22.475 19.6617 23.6016 19.3336 24.75 19.2625V18.125C24.75 15.8391 23.2898 13.8922 21.25 13.1758V10.25C21.25 9.28203 20.468 8.5 19.5 8.5C18.532 8.5 17.75 9.28203 17.75 10.25V12.875H14.25V10.25C14.25 9.28203 13.468 8.5 12.5 8.5C11.532 8.5 10.75 9.28203 10.75 10.25V12.875H7.25V10.25ZM24.75 21.8984C24.0555 21.9641 23.3773 22.1719 22.7539 22.5273L22.3656 22.7516C20.0359 24.0805 17.1484 23.9383 14.9664 22.3797C13.4898 21.3242 11.5102 21.3242 10.0336 22.3797C7.85156 23.9383 4.96406 24.0859 2.63438 22.7516L2.24609 22.5273C1.62266 22.1719 0.944531 21.9586 0.25 21.8984V26C0.25 27.9305 1.81953 29.5 3.75 29.5H21.25C23.1805 29.5 24.75 27.9305 24.75 26V21.8984Z" fill="#3035C3"/>
</svg>
