<svg width="29" height="29" viewBox="0 0 29 29" fill="none" xmlns="http://www.w3.org/2000/svg">
<path d="M14.5 28.5C22.2328 28.5 28.5 22.2328 28.5 14.5C28.5 6.76719 22.2328 0.5 14.5 0.5C6.76719 0.5 0.5 6.76719 0.5 14.5C0.5 22.2328 6.76719 28.5 14.5 28.5ZM13.1875 19.3125V15.8125H9.6875C8.96016 15.8125 8.375 15.2273 8.375 14.5C8.375 13.7727 8.96016 13.1875 9.6875 13.1875H13.1875V9.6875C13.1875 8.96016 13.7727 8.375 14.5 8.375C15.2273 8.375 15.8125 8.96016 15.8125 9.6875V13.1875H19.3125C20.0398 13.1875 20.625 13.7727 20.625 14.5C20.625 15.2273 20.0398 15.8125 19.3125 15.8125H15.8125V19.3125C15.8125 20.0398 15.2273 20.625 14.5 20.625C13.7727 20.625 13.1875 20.0398 13.1875 19.3125Z" fill="#E6514A"/>
</svg>
