<svg width="29" height="29" viewBox="0 0 29 29" fill="none" xmlns="http://www.w3.org/2000/svg">
<path d="M14.5001 28.4995C22.2329 28.4995 28.5001 22.2323 28.5001 14.4995C28.5001 6.7667 22.2329 0.499512 14.5001 0.499512C6.76731 0.499512 0.500122 6.7667 0.500122 14.4995C0.500122 22.2323 6.76731 28.4995 14.5001 28.4995ZM19.1157 12.1315L14.7407 19.1315C14.5111 19.4979 14.1173 19.7276 13.6853 19.7495C13.2532 19.7714 12.8376 19.5745 12.5806 19.2245L9.95559 15.7245C9.51809 15.1448 9.6384 14.3245 10.2181 13.887C10.7978 13.4495 11.6181 13.5698 12.0556 14.1495L13.5322 16.1183L16.89 10.7425C17.2728 10.13 18.0822 9.93857 18.7001 10.3269C19.3181 10.7151 19.504 11.519 19.1157 12.137V12.1315Z" fill="#3035C3"/>
</svg>
