<svg width="20" height="20" viewBox="0 0 20 20" fill="none" xmlns="http://www.w3.org/2000/svg">
<path d="M5.58748 10.5868H7.54046V18.7097C7.54046 18.8701 7.66908 19 7.82782 19H11.1392C11.298 19 11.4266 18.8701 11.4266 18.7097V10.6251H13.6717C13.8177 10.6251 13.9405 10.5144 13.9572 10.3679L14.2982 7.37749C14.3075 7.29521 14.2817 7.21279 14.2272 7.1511C14.1727 7.08933 14.0947 7.05396 14.0127 7.05396H11.4266V5.17942C11.4266 4.61434 11.7278 4.32779 12.3218 4.32779C12.4065 4.32779 14.0127 4.32779 14.0127 4.32779C14.1714 4.32779 14.3 4.19781 14.3 4.03747V1.29248C14.3 1.13211 14.1714 1.00216 14.0127 1.00216H11.6824C11.666 1.00135 11.6296 1 11.5757 1C11.1714 1 9.76604 1.08019 8.65587 2.112C7.42582 3.25541 7.59681 4.62444 7.63766 4.86182V7.05385H5.58741C5.42867 7.05385 5.30005 7.18379 5.30005 7.34417V10.2964C5.30012 10.4568 5.42874 10.5868 5.58748 10.5868Z" fill="#3035C3"/>
<path d="M11.0359 19H7.82371C7.47229 19 7.1864 18.7141 7.1864 18.3627V10.922H5.6505C5.29907 10.922 5.01318 10.636 5.01318 10.2846V7.44998C5.01318 7.09855 5.29911 6.81266 5.6505 6.81266H7.28073V5.09563C7.22687 4.74836 7.10442 3.33989 8.38414 2.16237C9.55657 1.08385 11.0344 1 11.4593 1C11.5119 1 11.5494 1.00116 11.571 1.00207H13.8233C14.1747 1.00207 14.4606 1.28796 14.4606 1.63939V4.27495C14.4606 4.62637 14.1747 4.91226 13.8233 4.91226H12.1831C11.7545 4.91226 11.6733 5.07363 11.6733 5.3714V6.8127H13.8233C14.0047 6.8127 14.1781 6.89039 14.2989 7.02585C14.4198 7.16138 14.4771 7.34257 14.4563 7.52296L14.1255 10.3942C14.0885 10.716 13.8163 10.9587 13.4924 10.9587H11.6731V18.3627C11.6732 18.7141 11.3873 19 11.0359 19ZM7.90348 18.2829H10.956V10.6002C10.956 10.4022 11.1166 10.2416 11.3146 10.2416H13.4213L13.7337 7.52992H11.3147C11.1167 7.52992 10.9561 7.3694 10.9561 7.17136V5.3715C10.9561 4.63498 11.4148 4.19525 12.1831 4.19525H13.7435V1.71923H11.5629C11.557 1.71923 11.5511 1.71909 11.5452 1.7188C11.5397 1.71852 11.5097 1.71719 11.4594 1.71719C11.1 1.71719 9.85114 1.78736 8.86972 2.69021C7.81967 3.65637 7.95478 4.78805 7.99257 5.00514C7.99609 5.02543 7.99784 5.04599 7.99784 5.06656V7.17126C7.99784 7.36929 7.83729 7.52982 7.63929 7.52982H5.73027V10.2049H7.54493C7.74293 10.2049 7.90348 10.3654 7.90348 10.5634V18.2829Z" fill="#3035C3"/>
<path d="M8.62528 13.9799C8.42728 13.9799 8.26672 13.8194 8.26672 13.6214V13.4421C8.26672 13.244 8.42728 13.0835 8.62528 13.0835C8.82328 13.0835 8.98384 13.244 8.98384 13.4421V13.6214C8.98388 13.8194 8.82328 13.9799 8.62528 13.9799Z" fill="#3035C3"/>
<path d="M8.62528 17.8524C8.42728 17.8524 8.26672 17.6919 8.26672 17.4938V14.7687C8.26672 14.5707 8.42728 14.4102 8.62528 14.4102C8.82328 14.4102 8.98384 14.5707 8.98384 14.7687V17.4938C8.98388 17.6918 8.82328 17.8524 8.62528 17.8524Z" fill="#3035C3"/>
</svg>
